<?xml version="1.0" standalone="no"?>
<!DOCTYPE svg PUBLIC "-//W3C//DTD SVG 20010904//EN"
 "http://www.w3.org/TR/2001/REC-SVG-20010904/DTD/svg10.dtd">
<svg version="1.0" xmlns="http://www.w3.org/2000/svg"
 width="200.000000pt" height="70.000000pt" viewBox="0 0 200.000000 70.000000"
 preserveAspectRatio="xMidYMid meet">
<metadata>
Created by potrace 1.16, written by Peter Selinger 2001-2019
</metadata>
<g transform="translate(0.000000,70.000000) scale(0.100000,-0.100000)"
fill="#000000" stroke="none">
<path d="M0 580 l0 -120 50 0 c43 0 50 -3 50 -20 0 -16 -7 -20 -30 -20 -23 0
-30 -4 -30 -20 0 -15 7 -20 25 -20 18 0 25 -5 25 -20 0 -15 -7 -20 -25 -20
-18 0 -25 -5 -25 -20 0 -16 7 -20 30 -20 23 0 30 -4 30 -20 0 -17 -7 -20 -50
-20 l-50 0 0 -130 0 -130 1000 0 1000 0 0 350 0 350 -1000 0 -1000 0 0 -120z
m275 -156 c21 25 42 43 47 40 4 -3 8 -50 8 -105 0 -92 -1 -99 -20 -99 -18 0
-20 7 -20 57 l0 57 -28 -27 -28 -27 -27 27 -27 28 0 -58 c0 -50 -2 -57 -20
-57 -19 0 -20 7 -20 107 l0 107 49 -48 49 -48 37 46z m575 -16 c0 45 3 52 20
52 19 0 20 -7 20 -102 l0 -102 -55 54 -55 54 0 -52 c0 -45 -3 -52 -20 -52 -19
0 -20 7 -20 108 l1 107 54 -60 55 -60 0 53z m675 16 c21 25 42 43 47 40 4 -3
8 -50 8 -105 0 -92 -1 -99 -20 -99 -18 0 -20 7 -20 57 l0 57 -28 -27 -28 -27
-27 27 -27 28 0 -58 c0 -50 -2 -57 -20 -57 -19 0 -20 7 -20 107 l0 107 49 -48
49 -48 37 46z m-1055 16 c0 -16 -7 -20 -30 -20 -23 0 -30 -4 -30 -20 0 -15 7
-20 25 -20 18 0 25 -5 25 -20 0 -15 -7 -20 -25 -20 -18 0 -25 -5 -25 -20 0
-16 7 -20 35 -20 28 0 35 -4 35 -20 0 -18 -7 -20 -55 -20 l-55 0 0 100 0 100
50 0 c43 0 50 -3 50 -20z m80 -60 l0 -80 35 0 c28 0 35 -4 35 -20 0 -18 -7
-20 -55 -20 l-55 0 0 100 c0 93 1 100 20 100 18 0 20 -7 20 -80z m140 -20 c0
-93 -1 -100 -20 -100 -19 0 -20 7 -20 100 0 93 1 100 20 100 19 0 20 -7 20
-100z m350 80 c0 -16 -7 -20 -30 -20 -23 0 -30 -4 -30 -20 0 -15 7 -20 25 -20
18 0 25 -5 25 -20 0 -15 -7 -20 -25 -20 -18 0 -25 -5 -25 -20 0 -16 7 -20 35
-20 28 0 35 -4 35 -20 0 -18 -7 -20 -55 -20 l-55 0 0 100 0 100 50 0 c43 0 50
-3 50 -20z m160 -60 l0 -80 35 0 c28 0 35 -4 35 -20 0 -18 -7 -20 -55 -20
l-55 0 0 100 c0 93 1 100 20 100 18 0 20 -7 20 -80z m140 -20 c0 -93 -1 -100
-20 -100 -19 0 -20 7 -20 100 0 93 1 100 20 100 19 0 20 -7 20 -100z m320 0
c0 -93 -1 -100 -20 -100 -19 0 -20 7 -20 100 0 93 1 100 20 100 19 0 20 -7 20
-100z m150 80 c0 -16 -7 -20 -30 -20 -23 0 -30 -4 -30 -20 0 -15 7 -20 25 -20
18 0 25 -5 25 -20 0 -15 -7 -20 -25 -20 -18 0 -25 -5 -25 -20 0 -16 7 -20 30
-20 23 0 30 -4 30 -20 0 -17 -7 -20 -50 -20 l-50 0 0 100 0 100 50 0 c43 0 50
-3 50 -20z m162 3 c23 -21 23 -58 -1 -82 -17 -17 -17 -19 0 -52 23 -44 23 -49
-1 -49 -13 0 -27 14 -40 40 -11 22 -25 40 -30 40 -6 0 -10 -18 -10 -40 0 -33
-3 -40 -20 -40 -19 0 -20 7 -20 100 l0 100 52 0 c34 0 58 -6 70 -17z"/>
<path d="M1890 400 c0 -17 5 -21 28 -18 16 2 27 9 27 18 0 9 -11 16 -27 18
-23 3 -28 -1 -28 -18z"/>
</g>
</svg>
