<?xml version="1.0" standalone="no"?>
<!DOCTYPE svg PUBLIC "-//W3C//DTD SVG 20010904//EN"
 "http://www.w3.org/TR/2001/REC-SVG-20010904/DTD/svg10.dtd">
<svg version="1.0" xmlns="http://www.w3.org/2000/svg"
 width="200.000000pt" height="70.000000pt" viewBox="0 0 200.000000 70.000000"
 preserveAspectRatio="xMidYMid meet">
<metadata>
Created by potrace 1.16, written by Peter Selinger 2001-2019
</metadata>
<g transform="translate(0.000000,70.000000) scale(0.100000,-0.100000)"
fill="#000000" stroke="none">
<path d="M140 367 c0 -100 1 -107 20 -107 18 0 20 7 20 57 l0 58 27 -28 27
-27 28 27 28 27 0 -57 c0 -50 2 -57 20 -57 19 0 20 7 20 99 0 55 -4 102 -8
105 -5 3 -26 -15 -47 -40 l-37 -46 -49 48 -49 48 0 -107z"/>
<path d="M740 368 c0 -101 1 -108 20 -108 17 0 20 7 20 50 0 28 3 50 8 50 4 0
26 -23 50 -50 24 -28 47 -50 53 -50 5 0 9 44 9 100 0 93 -1 100 -20 100 -17 0
-20 -7 -20 -50 0 -27 -3 -50 -6 -50 -4 0 -31 26 -60 58 l-53 57 -1 -107z"/>
<path d="M1396 463 c-3 -3 -6 -51 -6 -105 0 -91 1 -98 20 -98 18 0 20 7 20 57
l0 57 28 -27 28 -27 27 27 27 28 0 -58 c0 -50 2 -57 20 -57 19 0 20 7 20 107
l0 107 -49 -48 -48 -47 -40 45 c-22 25 -43 43 -47 39z"/>
<path d="M0 360 l0 -100 50 0 c43 0 50 3 50 20 0 16 -7 20 -30 20 -23 0 -30 4
-30 20 0 15 7 20 25 20 18 0 25 5 25 20 0 15 -7 20 -25 20 -18 0 -25 5 -25 20
0 16 7 20 30 20 23 0 30 4 30 20 0 17 -7 20 -50 20 l-50 0 0 -100z"/>
<path d="M370 360 l0 -100 55 0 c48 0 55 2 55 20 0 16 -7 20 -35 20 -28 0 -35
4 -35 20 0 16 7 20 30 20 23 0 30 4 30 20 0 16 -7 20 -30 20 -23 0 -30 4 -30
20 0 16 7 20 30 20 23 0 30 4 30 20 0 17 -7 20 -50 20 l-50 0 0 -100z"/>
<path d="M520 360 l0 -100 50 0 c43 0 50 3 50 20 0 16 -7 20 -30 20 l-30 0 0
80 c0 73 -2 80 -20 80 -19 0 -20 -7 -20 -100z"/>
<path d="M660 360 c0 -93 1 -100 20 -100 19 0 20 7 20 100 0 93 -1 100 -20
100 -19 0 -20 -7 -20 -100z"/>
<path d="M940 360 l0 -100 55 0 c48 0 55 2 55 20 0 16 -7 20 -35 20 -28 0 -35
4 -35 20 0 16 7 20 30 20 23 0 30 4 30 20 0 16 -7 20 -30 20 -23 0 -30 4 -30
20 0 16 7 20 30 20 23 0 30 4 30 20 0 17 -7 20 -50 20 l-50 0 0 -100z"/>
<path d="M1170 360 l0 -100 50 0 c43 0 50 3 50 20 0 16 -7 20 -30 20 l-30 0 0
80 c0 73 -2 80 -20 80 -19 0 -20 -7 -20 -100z"/>
<path d="M1310 360 c0 -93 1 -100 20 -100 19 0 20 7 20 100 0 93 -1 100 -20
100 -19 0 -20 -7 -20 -100z"/>
<path d="M1620 360 c0 -93 1 -100 20 -100 19 0 20 7 20 100 0 93 -1 100 -20
100 -19 0 -20 -7 -20 -100z"/>
<path d="M1710 360 l0 -100 55 0 c48 0 55 2 55 20 0 16 -7 20 -35 20 -28 0
-35 4 -35 20 0 15 7 20 25 20 18 0 25 5 25 20 0 15 -7 20 -25 20 -18 0 -25 5
-25 20 0 16 7 20 30 20 23 0 30 4 30 20 0 17 -7 20 -50 20 l-50 0 0 -100z"/>
<path d="M1850 360 c0 -93 1 -100 20 -100 17 0 20 7 20 40 0 51 13 51 42 0 16
-28 30 -40 46 -40 l23 0 -23 39 c-21 37 -22 40 -5 58 9 11 17 31 17 46 0 41
-24 57 -86 57 l-54 0 0 -100z m95 40 c0 -9 -11 -16 -27 -18 -23 -3 -28 1 -28
18 0 17 5 21 28 18 16 -2 27 -9 27 -18z"/>
</g>
</svg>
